<svg width="960" height="600" viewBox="0 0 960 600" fill="none" xmlns="http://www.w3.org/2000/svg">
  <defs>
    <linearGradient id="background" x1="0" y1="0" x2="1" y2="1">
      <stop offset="0" stop-color="#0f172a" />
      <stop offset="1" stop-color="#1e3a8a" />
    </linearGradient>
    <linearGradient id="accent" x1="0" y1="0" x2="1" y2="0">
      <stop offset="0" stop-color="#22d3ee" />
      <stop offset="1" stop-color="#2563eb" />
    </linearGradient>
    <filter id="shadow" x="-10%" y="-10%" width="120%" height="120%">
      <feDropShadow dx="0" dy="12" stdDeviation="20" flood-color="#0f172a" flood-opacity="0.35" />
    </filter>
  </defs>
  <rect width="960" height="600" rx="24" fill="url(#background)" />
  <g filter="url(#shadow)">
    <rect x="72" y="96" width="816" height="180" rx="20" fill="#0f172a" fill-opacity="0.65" />
    <rect x="72" y="316" width="344" height="188" rx="20" fill="#0f172a" fill-opacity="0.5" />
    <rect x="440" y="316" width="448" height="188" rx="20" fill="#0f172a" fill-opacity="0.5" />
  </g>
  <g stroke="url(#accent)" stroke-width="10" stroke-linecap="round" stroke-linejoin="round">
    <path d="M136 190H268L332 150H460" />
    <path d="M460 150L512 190H684L764 150" />
    <path d="M136 386H280L328 430H440" />
    <path d="M440 430H636L688 360H812" />
  </g>
  <g opacity="0.7">
    <rect x="120" y="128" width="160" height="32" rx="16" fill="#bfdbfe" fill-opacity="0.4" />
    <rect x="120" y="176" width="220" height="20" rx="10" fill="#bfdbfe" fill-opacity="0.3" />
    <rect x="368" y="128" width="200" height="32" rx="16" fill="#bfdbfe" fill-opacity="0.35" />
    <rect x="368" y="176" width="248" height="20" rx="10" fill="#bfdbfe" fill-opacity="0.25" />
    <rect x="616" y="128" width="208" height="32" rx="16" fill="#bfdbfe" fill-opacity="0.35" />
    <rect x="616" y="176" width="204" height="20" rx="10" fill="#bfdbfe" fill-opacity="0.25" />
  </g>
  <g opacity="0.8">
    <rect x="120" y="348" width="112" height="24" rx="12" fill="#38bdf8" fill-opacity="0.35" />
    <rect x="120" y="388" width="192" height="16" rx="8" fill="#38bdf8" fill-opacity="0.25" />
    <rect x="120" y="420" width="152" height="16" rx="8" fill="#38bdf8" fill-opacity="0.2" />
    <rect x="120" y="452" width="96" height="16" rx="8" fill="#38bdf8" fill-opacity="0.2" />
  </g>
  <g opacity="0.8">
    <rect x="488" y="348" width="144" height="24" rx="12" fill="#38bdf8" fill-opacity="0.35" />
    <rect x="488" y="388" width="248" height="16" rx="8" fill="#38bdf8" fill-opacity="0.25" />
    <rect x="488" y="420" width="208" height="16" rx="8" fill="#38bdf8" fill-opacity="0.2" />
    <rect x="488" y="452" width="304" height="16" rx="8" fill="#38bdf8" fill-opacity="0.2" />
    <rect x="488" y="484" width="264" height="16" rx="8" fill="#38bdf8" fill-opacity="0.15" />
  </g>
  <circle cx="816" cy="410" r="40" fill="url(#accent)" opacity="0.45" />
  <path d="M800 410L812 422L836 394" stroke="#f8fafc" stroke-width="6" stroke-linecap="round" stroke-linejoin="round" />
  <rect x="72" y="520" width="240" height="24" rx="12" fill="#38bdf8" fill-opacity="0.15" />
  <rect x="328" y="520" width="240" height="24" rx="12" fill="#38bdf8" fill-opacity="0.12" />
  <rect x="584" y="520" width="240" height="24" rx="12" fill="#38bdf8" fill-opacity="0.1" />
</svg>
