<svg width="960" height="600" viewBox="0 0 960 600" fill="none" xmlns="http://www.w3.org/2000/svg">
  <defs>
    <linearGradient id="bg" x1="0" y1="0" x2="1" y2="1">
      <stop offset="0" stop-color="#111827" />
      <stop offset="1" stop-color="#1e40af" />
    </linearGradient>
    <linearGradient id="radar" x1="0.5" y1="0" x2="0.5" y2="1">
      <stop offset="0" stop-color="#60a5fa" stop-opacity="0.7" />
      <stop offset="1" stop-color="#2563eb" stop-opacity="0.1" />
    </linearGradient>
  </defs>
  <rect width="960" height="600" rx="24" fill="url(#bg)" />
  <rect x="56" y="88" width="848" height="424" rx="24" fill="#0f172a" fill-opacity="0.65" />
  <rect x="96" y="128" width="768" height="96" rx="16" fill="#1e293b" fill-opacity="0.65" />
  <rect x="96" y="248" width="320" height="224" rx="16" fill="#1e293b" fill-opacity="0.5" />
  <rect x="440" y="248" width="424" height="224" rx="16" fill="#1e293b" fill-opacity="0.5" />
  <rect x="96" y="496" width="768" height="40" rx="20" fill="#1e293b" fill-opacity="0.45" />
  <circle cx="256" cy="360" r="112" fill="#0f172a" fill-opacity="0.6" stroke="#38bdf8" stroke-opacity="0.4" stroke-width="4" />
  <circle cx="256" cy="360" r="64" fill="url(#radar)" />
  <path d="M256 248V472" stroke="#38bdf8" stroke-opacity="0.35" stroke-width="2" stroke-dasharray="6 10" />
  <path d="M144 360H368" stroke="#38bdf8" stroke-opacity="0.35" stroke-width="2" stroke-dasharray="6 10" />
  <path d="M256 360L312 272" stroke="#2563eb" stroke-width="6" stroke-linecap="round" />
  <circle cx="312" cy="272" r="12" fill="#2563eb" />
  <circle cx="216" cy="420" r="8" fill="#38bdf8" />
  <circle cx="304" cy="420" r="8" fill="#38bdf8" />
  <g opacity="0.75">
    <rect x="128" y="152" width="168" height="24" rx="12" fill="#bfdbfe" fill-opacity="0.4" />
    <rect x="128" y="192" width="240" height="18" rx="9" fill="#bfdbfe" fill-opacity="0.3" />
    <rect x="360" y="152" width="176" height="24" rx="12" fill="#bfdbfe" fill-opacity="0.4" />
    <rect x="360" y="192" width="220" height="18" rx="9" fill="#bfdbfe" fill-opacity="0.25" />
    <rect x="592" y="152" width="200" height="24" rx="12" fill="#bfdbfe" fill-opacity="0.35" />
    <rect x="592" y="192" width="180" height="18" rx="9" fill="#bfdbfe" fill-opacity="0.25" />
  </g>
  <g opacity="0.8">
    <rect x="480" y="292" width="296" height="16" rx="8" fill="#60a5fa" fill-opacity="0.35" />
    <rect x="480" y="328" width="336" height="12" rx="6" fill="#60a5fa" fill-opacity="0.25" />
    <rect x="480" y="356" width="256" height="12" rx="6" fill="#60a5fa" fill-opacity="0.2" />
    <rect x="480" y="384" width="312" height="12" rx="6" fill="#60a5fa" fill-opacity="0.2" />
    <rect x="480" y="412" width="224" height="12" rx="6" fill="#60a5fa" fill-opacity="0.2" />
    <rect x="480" y="440" width="352" height="12" rx="6" fill="#60a5fa" fill-opacity="0.2" />
  </g>
  <rect x="144" y="504" width="216" height="16" rx="8" fill="#2563eb" fill-opacity="0.3" />
  <rect x="384" y="504" width="216" height="16" rx="8" fill="#2563eb" fill-opacity="0.25" />
  <rect x="624" y="504" width="216" height="16" rx="8" fill="#2563eb" fill-opacity="0.2" />
</svg>
