<svg width="600" height="375" viewBox="0 0 600 375" fill="none" xmlns="http://www.w3.org/2000/svg">
  <rect width="600" height="375" rx="24" fill="#0F172A"/>
  <rect x="36" y="48" width="528" height="279" rx="18" fill="#1F2937"/>
  <rect x="64" y="90" width="186" height="20" rx="10" fill="#60A5FA" opacity="0.9"/>
  <rect x="64" y="146" width="268" height="20" rx="10" fill="#1D4ED8" opacity="0.9"/>
  <rect x="64" y="202" width="146" height="20" rx="10" fill="#3B82F6" opacity="0.9"/>
  <rect x="64" y="258" width="214" height="20" rx="10" fill="#2563EB" opacity="0.9"/>
  <path d="M300 90H520" stroke="#94A3B8" stroke-width="3" stroke-linecap="round" stroke-dasharray="6 12"/>
  <path d="M360 146H520" stroke="#94A3B8" stroke-width="3" stroke-linecap="round" stroke-dasharray="6 12"/>
  <path d="M230 202H520" stroke="#94A3B8" stroke-width="3" stroke-linecap="round" stroke-dasharray="6 12"/>
  <path d="M300 258H520" stroke="#94A3B8" stroke-width="3" stroke-linecap="round" stroke-dasharray="6 12"/>
  <circle cx="520" cy="90" r="8" fill="#38BDF8"/>
  <circle cx="520" cy="146" r="8" fill="#38BDF8"/>
  <circle cx="520" cy="202" r="8" fill="#38BDF8"/>
  <circle cx="520" cy="258" r="8" fill="#38BDF8"/>
  <rect x="64" y="298" width="128" height="12" rx="6" fill="#94A3B8"/>
  <rect x="64" y="318" width="182" height="12" rx="6" fill="#64748B"/>
  <rect x="280" y="298" width="154" height="12" rx="6" fill="#64748B" opacity="0.7"/>
</svg>
