<svg width="960" height="600" viewBox="0 0 960 600" fill="none" xmlns="http://www.w3.org/2000/svg">
  <defs>
    <linearGradient id="panel-gradient" x1="0" y1="0" x2="1" y2="1">
      <stop offset="0" stop-color="#1e40af" />
      <stop offset="1" stop-color="#2563eb" />
    </linearGradient>
    <linearGradient id="glow" x1="0" y1="0" x2="0" y2="1">
      <stop offset="0" stop-color="#38bdf8" stop-opacity="0.4" />
      <stop offset="1" stop-color="#0f172a" stop-opacity="0" />
    </linearGradient>
  </defs>
  <rect width="960" height="600" rx="24" fill="#0f172a" />
  <rect x="16" y="16" width="928" height="568" rx="20" fill="url(#panel-gradient)" />
  <rect x="48" y="64" width="864" height="184" rx="16" fill="#0f172a" fill-opacity="0.55" />
  <rect x="48" y="272" width="272" height="224" rx="16" fill="#0f172a" fill-opacity="0.4" />
  <rect x="352" y="272" width="560" height="224" rx="16" fill="#0f172a" fill-opacity="0.4" />
  <path d="M80 344L160 304L224 352L288 312L304 344" stroke="#38bdf8" stroke-width="6" stroke-linecap="round" stroke-linejoin="round" />
  <path d="M384 320H848" stroke="#bfdbfe" stroke-opacity="0.4" stroke-width="2" stroke-linecap="round" stroke-dasharray="8 12" />
  <path d="M384 360H768" stroke="#bfdbfe" stroke-opacity="0.4" stroke-width="2" stroke-linecap="round" stroke-dasharray="6 10" />
  <path d="M384 400H720" stroke="#bfdbfe" stroke-opacity="0.4" stroke-width="2" stroke-linecap="round" stroke-dasharray="10 14" />
  <path d="M384 440H864" stroke="#bfdbfe" stroke-opacity="0.4" stroke-width="2" stroke-linecap="round" stroke-dasharray="4 12" />
  <circle cx="144" cy="164" r="52" fill="#1e3a8a" />
  <path d="M96 180C120 148 144 172 160 156C176 140 188 136 208 148" stroke="#bfdbfe" stroke-width="6" stroke-linecap="round" />
  <rect x="224" y="132" width="240" height="24" rx="12" fill="#bfdbfe" fill-opacity="0.6" />
  <rect x="224" y="172" width="320" height="16" rx="8" fill="#bfdbfe" fill-opacity="0.4" />
  <rect x="560" y="132" width="240" height="24" rx="12" fill="#bfdbfe" fill-opacity="0.35" />
  <rect x="560" y="172" width="272" height="16" rx="8" fill="#bfdbfe" fill-opacity="0.25" />
  <rect x="48" y="520" width="224" height="24" rx="12" fill="#38bdf8" fill-opacity="0.35" />
  <rect x="288" y="520" width="224" height="24" rx="12" fill="#38bdf8" fill-opacity="0.25" />
  <rect x="528" y="520" width="224" height="24" rx="12" fill="#38bdf8" fill-opacity="0.15" />
  <rect x="768" y="520" width="144" height="24" rx="12" fill="#38bdf8" fill-opacity="0.1" />
  <ellipse cx="480" cy="248" rx="280" ry="40" fill="url(#glow)" />
</svg>
