<svg width="600" height="375" viewBox="0 0 600 375" fill="none" xmlns="http://www.w3.org/2000/svg">
  <rect width="600" height="375" rx="24" fill="#0F172A"/>
  <rect x="40" y="48" width="520" height="279" rx="18" fill="#1E3A8A"/>
  <rect x="84" y="102" width="108" height="152" rx="12" fill="#1F2937"/>
  <rect x="94" y="118" width="88" height="8" rx="4" fill="#38BDF8"/>
  <rect x="94" y="138" width="88" height="8" rx="4" fill="#60A5FA"/>
  <rect x="94" y="158" width="88" height="8" rx="4" fill="#93C5FD"/>
  <rect x="94" y="190" width="68" height="8" rx="4" fill="#64748B"/>
  <rect x="94" y="210" width="88" height="8" rx="4" fill="#64748B" opacity="0.7"/>
  <rect x="94" y="250" width="64" height="12" rx="6" fill="#38BDF8"/>
  <rect x="240" y="86" width="292" height="192" rx="18" fill="#0F172A" opacity="0.7" stroke="#60A5FA" stroke-width="2.5" stroke-dasharray="10 10"/>
  <rect x="268" y="118" width="112" height="64" rx="12" fill="#1E40AF"/>
  <rect x="404" y="118" width="96" height="64" rx="12" fill="#2563EB"/>
  <rect x="320" y="212" width="136" height="46" rx="10" fill="#1D4ED8"/>
  <path d="M192 178C256 178 256 150 320 150" stroke="#FACC15" stroke-width="6" stroke-linecap="round" stroke-dasharray="14 18"/>
  <path d="M380 150H404" stroke="#FACC15" stroke-width="6" stroke-linecap="round" stroke-dasharray="10 16"/>
  <path d="M452 182V212" stroke="#FACC15" stroke-width="6" stroke-linecap="round" stroke-dasharray="10 16"/>
  <rect x="276" y="130" width="48" height="8" rx="4" fill="#BFDBFE"/>
  <rect x="276" y="148" width="64" height="8" rx="4" fill="#BFDBFE"/>
  <rect x="412" y="130" width="60" height="8" rx="4" fill="#BFDBFE"/>
  <rect x="412" y="148" width="48" height="8" rx="4" fill="#BFDBFE" opacity="0.8"/>
  <rect x="332" y="224" width="68" height="8" rx="4" fill="#BFDBFE"/>
  <rect x="332" y="242" width="92" height="8" rx="4" fill="#BFDBFE" opacity="0.8"/>
  <circle cx="212" cy="178" r="16" fill="#38BDF8" stroke="#0EA5E9" stroke-width="4"/>
  <circle cx="380" cy="150" r="12" fill="#FCD34D" stroke="#FACC15" stroke-width="4"/>
  <circle cx="452" cy="182" r="12" fill="#FCD34D" stroke="#FACC15" stroke-width="4"/>
  <rect x="240" y="298" width="220" height="12" rx="6" fill="#94A3B8"/>
  <rect x="240" y="318" width="172" height="12" rx="6" fill="#64748B"/>
</svg>
