<svg width="600" height="375" viewBox="0 0 600 375" fill="none" xmlns="http://www.w3.org/2000/svg">
  <rect width="600" height="375" rx="24" fill="#111827"/>
  <rect x="40" y="48" width="520" height="279" rx="18" fill="#1E293B"/>
  <circle cx="180" cy="132" r="38" fill="#3B82F6" opacity="0.9"/>
  <circle cx="360" cy="108" r="34" fill="#60A5FA" opacity="0.9"/>
  <circle cx="456" cy="198" r="42" fill="#1D4ED8" opacity="0.9"/>
  <circle cx="246" cy="234" r="36" fill="#2563EB" opacity="0.85"/>
  <circle cx="144" cy="228" r="30" fill="#38BDF8" opacity="0.9"/>
  <path d="M206 118L330 101" stroke="#C7D2FE" stroke-width="4" stroke-linecap="round" stroke-dasharray="8 12"/>
  <path d="M392 126L436 166" stroke="#C7D2FE" stroke-width="4" stroke-linecap="round" stroke-dasharray="8 12"/>
  <path d="M174 168L228 206" stroke="#93C5FD" stroke-width="4" stroke-linecap="round" stroke-dasharray="8 12"/>
  <path d="M210 228L420 210" stroke="#C7D2FE" stroke-width="4" stroke-linecap="round" stroke-dasharray="10 14"/>
  <path d="M360 142L450 180" stroke="#DBEAFE" stroke-width="4" stroke-linecap="round" stroke-dasharray="6 10"/>
  <rect x="80" y="82" width="68" height="22" rx="11" fill="#334155"/>
  <rect x="284" y="62" width="88" height="22" rx="11" fill="#334155"/>
  <rect x="440" y="260" width="100" height="16" rx="8" fill="#475569"/>
  <rect x="80" y="286" width="160" height="12" rx="6" fill="#4B5563"/>
  <rect x="80" y="306" width="220" height="12" rx="6" fill="#64748B"/>
  <rect x="80" y="326" width="164" height="12" rx="6" fill="#64748B" opacity="0.7"/>
</svg>
