<svg width="48" height="48" viewBox="0 0 48 48" fill="none" xmlns="http://www.w3.org/2000/svg">
  <circle cx="24" cy="24" r="24" fill="#0f172a" />
  <path d="M24 11C18.48 11 14 15.53 14 21.1C14 25.53 16.87 29.3 20.74 30.6C21.24 30.7 21.44 30.4 21.44 30.13C21.44 29.88 21.43 29.31 21.43 28.57C18.66 29.19 18.05 27.32 18.05 27.32C17.59 26.09 16.91 25.77 16.91 25.77C15.91 25.09 16.99 25.1 16.99 25.1C18.09 25.18 18.67 26.24 18.67 26.24C19.66 28 21.33 27.5 21.98 27.24C22.08 26.57 22.35 26.1 22.65 25.84C20.26 25.57 17.75 24.58 17.75 20.32C17.75 19.16 18.16 18.2 18.84 17.43C18.73 17.16 18.36 16.03 18.94 14.46C18.94 14.46 19.86 14.17 21.43 15.36C22.3 15.09 23.21 14.96 24.12 14.96C25.03 14.96 25.94 15.09 26.81 15.36C28.38 14.17 29.3 14.46 29.3 14.46C29.88 16.03 29.5 17.16 29.39 17.43C30.07 18.2 30.48 19.16 30.48 20.32C30.48 24.6 27.96 25.56 25.56 25.83C25.94 26.15 26.27 26.76 26.27 27.71C26.27 29.07 26.25 30.06 26.25 30.13C26.25 30.4 26.45 30.71 26.96 30.59C30.83 29.28 33.69 25.51 33.69 21.08C33.69 15.53 29.21 11 23.69 11H24Z" fill="#38bdf8" />
</svg>
