<svg width="640" height="400" viewBox="0 0 640 400" fill="none" xmlns="http://www.w3.org/2000/svg">
  <defs>
    <linearGradient id="background" x1="0" y1="0" x2="1" y2="1">
      <stop offset="0" stop-color="#111827" />
      <stop offset="1" stop-color="#1e40af" />
    </linearGradient>
    <linearGradient id="pulse" x1="0" y1="0" x2="1" y2="0">
      <stop offset="0" stop-color="#22d3ee" stop-opacity="0.6" />
      <stop offset="1" stop-color="#2563eb" stop-opacity="0.2" />
    </linearGradient>
  </defs>
  <rect width="640" height="400" rx="20" fill="url(#background)" />
  <rect x="60" y="80" width="520" height="240" rx="18" fill="#0f172a" fill-opacity="0.65" />
  <rect x="92" y="112" width="456" height="32" rx="16" fill="#38bdf8" fill-opacity="0.35" />
  <rect x="92" y="162" width="188" height="14" rx="7" fill="#bfdbfe" fill-opacity="0.35" />
  <rect x="92" y="190" width="216" height="14" rx="7" fill="#bfdbfe" fill-opacity="0.3" />
  <rect x="92" y="218" width="164" height="14" rx="7" fill="#bfdbfe" fill-opacity="0.25" />
  <rect x="92" y="246" width="196" height="14" rx="7" fill="#bfdbfe" fill-opacity="0.2" />
  <rect x="92" y="274" width="152" height="14" rx="7" fill="#bfdbfe" fill-opacity="0.2" />
  <path d="M316 274H524" stroke="#22d3ee" stroke-width="6" stroke-linecap="round" stroke-dasharray="10 16" opacity="0.5" />
  <path d="M336 258L364 286L392 250L420 286L448 250L476 286L504 250" stroke="url(#pulse)" stroke-width="6" stroke-linecap="round" stroke-linejoin="round" />
  <circle cx="420" cy="268" r="12" fill="#38bdf8" opacity="0.75" />
  <rect x="60" y="332" width="520" height="20" rx="10" fill="#2563eb" fill-opacity="0.25" />
</svg>
