<svg width="640" height="400" viewBox="0 0 640 400" fill="none" xmlns="http://www.w3.org/2000/svg">
  <defs>
    <linearGradient id="bg" x1="0" y1="0" x2="1" y2="1">
      <stop offset="0" stop-color="#1e293b" />
      <stop offset="1" stop-color="#2563eb" />
    </linearGradient>
  </defs>
  <rect width="640" height="400" rx="20" fill="url(#bg)" />
  <rect x="64" y="76" width="512" height="248" rx="18" fill="#0f172a" fill-opacity="0.65" />
  <rect x="96" y="112" width="448" height="36" rx="18" fill="#38bdf8" fill-opacity="0.35" />
  <rect x="96" y="164" width="196" height="16" rx="8" fill="#bfdbfe" fill-opacity="0.35" />
  <rect x="96" y="192" width="232" height="16" rx="8" fill="#bfdbfe" fill-opacity="0.25" />
  <rect x="96" y="220" width="164" height="16" rx="8" fill="#bfdbfe" fill-opacity="0.25" />
  <rect x="96" y="248" width="208" height="16" rx="8" fill="#bfdbfe" fill-opacity="0.25" />
  <rect x="96" y="276" width="180" height="16" rx="8" fill="#bfdbfe" fill-opacity="0.2" />
  <g opacity="0.7">
    <rect x="332" y="164" width="208" height="16" rx="8" fill="#22d3ee" fill-opacity="0.3" />
    <rect x="332" y="192" width="180" height="16" rx="8" fill="#22d3ee" fill-opacity="0.25" />
    <rect x="332" y="220" width="224" height="16" rx="8" fill="#22d3ee" fill-opacity="0.2" />
    <rect x="332" y="248" width="208" height="16" rx="8" fill="#22d3ee" fill-opacity="0.2" />
    <rect x="332" y="276" width="180" height="16" rx="8" fill="#22d3ee" fill-opacity="0.18" />
  </g>
  <path d="M208 320H432" stroke="#bfdbfe" stroke-width="6" stroke-linecap="round" stroke-dasharray="12 16" opacity="0.5" />
  <path d="M228 320L248 300L268 320L288 300L308 320L328 300L348 320L368 300L388 320L408 300L428 320" stroke="#38bdf8" stroke-width="4" stroke-linecap="round" stroke-linejoin="round" opacity="0.6" />
</svg>
