<svg width="640" height="400" viewBox="0 0 640 400" fill="none" xmlns="http://www.w3.org/2000/svg">
  <defs>
    <linearGradient id="bg" x1="0" y1="0" x2="1" y2="1">
      <stop offset="0" stop-color="#0f172a" />
      <stop offset="1" stop-color="#1e3a8a" />
    </linearGradient>
  </defs>
  <rect width="640" height="400" rx="20" fill="url(#bg)" />
  <rect x="56" y="72" width="528" height="256" rx="16" fill="#0f172a" fill-opacity="0.7" />
  <rect x="88" y="104" width="240" height="20" rx="10" fill="#38bdf8" fill-opacity="0.35" />
  <rect x="88" y="140" width="192" height="14" rx="7" fill="#38bdf8" fill-opacity="0.25" />
  <rect x="88" y="172" width="208" height="14" rx="7" fill="#38bdf8" fill-opacity="0.2" />
  <rect x="88" y="204" width="176" height="14" rx="7" fill="#38bdf8" fill-opacity="0.2" />
  <rect x="88" y="236" width="160" height="14" rx="7" fill="#38bdf8" fill-opacity="0.2" />
  <rect x="88" y="268" width="216" height="14" rx="7" fill="#38bdf8" fill-opacity="0.2" />
  <g opacity="0.45">
    <rect x="344" y="120" width="192" height="12" rx="6" fill="#bfdbfe" />
    <rect x="344" y="144" width="160" height="12" rx="6" fill="#bfdbfe" fill-opacity="0.8" />
    <rect x="344" y="168" width="176" height="12" rx="6" fill="#bfdbfe" fill-opacity="0.65" />
    <rect x="344" y="192" width="208" height="12" rx="6" fill="#bfdbfe" fill-opacity="0.5" />
    <rect x="344" y="216" width="184" height="12" rx="6" fill="#bfdbfe" fill-opacity="0.4" />
    <rect x="344" y="240" width="200" height="12" rx="6" fill="#bfdbfe" fill-opacity="0.3" />
  </g>
  <rect x="56" y="332" width="528" height="24" rx="12" fill="#2563eb" fill-opacity="0.25" />
</svg>
