<svg width="360" height="240" viewBox="0 0 360 240" fill="none" xmlns="http://www.w3.org/2000/svg">
  <rect width="360" height="240" rx="20" fill="#F1F5F9"/>
  <rect x="28" y="34" width="304" height="172" rx="16" fill="#0F172A"/>
  <path d="M60 90C96 54 160 46 208 74C260 106 304 94 332 116" stroke="#38BDF8" stroke-width="3" stroke-linecap="round" stroke-dasharray="10 14"/>
  <path d="M60 150C92 124 140 136 176 170C210 202 280 194 332 152" stroke="#1D4ED8" stroke-width="3" stroke-linecap="round"/>
  <circle cx="92" cy="86" r="10" fill="#22D3EE"/>
  <circle cx="148" cy="74" r="8" fill="#2563EB"/>
  <circle cx="236" cy="104" r="9" fill="#22D3EE"/>
  <circle cx="284" cy="134" r="10" fill="#FCD34D"/>
  <circle cx="132" cy="162" r="11" fill="#2563EB"/>
  <circle cx="216" cy="184" r="9" fill="#22D3EE"/>
  <circle cx="300" cy="182" r="8" fill="#38BDF8"/>
  <rect x="60" y="60" width="96" height="8" rx="4" fill="#94A3B8" opacity="0.65"/>
  <rect x="60" y="196" width="176" height="10" rx="5" fill="#1E3A8A"/>
  <rect x="60" y="212" width="120" height="10" rx="5" fill="#1D4ED8" opacity="0.9"/>
  <rect x="200" y="212" width="92" height="10" rx="5" fill="#3B82F6" opacity="0.7"/>
</svg>
