<svg width="640" height="400" viewBox="0 0 640 400" fill="none" xmlns="http://www.w3.org/2000/svg">
  <defs>
    <linearGradient id="bg" x1="0" y1="0" x2="1" y2="1">
      <stop offset="0" stop-color="#1e40af" />
      <stop offset="1" stop-color="#2563eb" />
    </linearGradient>
  </defs>
  <rect width="640" height="400" rx="20" fill="url(#bg)" />
  <rect x="48" y="64" width="544" height="272" rx="16" fill="#0f172a" fill-opacity="0.6" />
  <polyline points="96,296 152,248 208,268 264,212 320,228 376,192 432,208 488,180 544,196" fill="none" stroke="#38bdf8" stroke-width="8" stroke-linecap="round" stroke-linejoin="round" />
  <circle cx="208" cy="268" r="10" fill="#38bdf8" />
  <circle cx="376" cy="192" r="10" fill="#38bdf8" />
  <circle cx="488" cy="180" r="10" fill="#38bdf8" />
  <rect x="96" y="100" width="160" height="18" rx="9" fill="#bfdbfe" fill-opacity="0.35" />
  <rect x="96" y="130" width="224" height="14" rx="7" fill="#bfdbfe" fill-opacity="0.25" />
  <rect x="344" y="100" width="208" height="18" rx="9" fill="#bfdbfe" fill-opacity="0.3" />
  <rect x="344" y="130" width="192" height="14" rx="7" fill="#bfdbfe" fill-opacity="0.2" />
</svg>
